#N canvas 0 0 1280 775 12;
#X obj 340 350 osc~;
#X obj 320 190 random 15000;
#X floatatom 330 240 5 0 0 0 - - -, f 5;
#X obj 300 60 tgl 34 0 empty empty empty 17 7 0 10 #fcfcfc #000000
#000000 0 1;
#X obj 460 280 * 3;
#X obj 510 280 * 5;
#X obj 560 280 * 7;
#X obj 580 340 osc~;
#X obj 520 340 osc~;
#X obj 460 340 osc~;
#X obj 340 430 *~ 0.5;
#X obj 460 430 *~ 0.3;
#X obj 530 430 *~ 0.2;
#X obj 610 430 *~ 0.1;
#X obj 360 570 *~;
#X obj 650 380 expr~ round($v1 / $f2);
#X floatatom 800 340 5 0 0 0 - - -, f 5;
#X obj 840 160 tgl 34 0 empty empty empty 17 7 0 10 #fcfcfc #000000
#000000 1 1;
#X obj 840 210 metro 50;
#X obj 840 250 random 10;
#X obj 730 300 random 0;
#X obj 730 250 metro 50;
#X obj 740 70 tgl 34 0 empty empty empty 17 7 0 10 #fcfcfc #000000
#000000 1 1;
#X obj 730 160 random 10;
#X floatatom 730 210 5 0 0 0 - - -, f 5;
#X obj 740 120 metro 25;
#X obj 300 110 metro 10;
#X msg 400 150 seed 16;
#X obj 310 620 freeverb~;
#X msg 510 560 wet \$1;
#X obj 510 520 hsl 50 15 0 1 0 0 empty empty empty -2 -8 2 10 #fcfcfc
#000000 #000000 3700 1;
#X obj 600 520 hsl 50 15 0 1 0 0 empty empty empty -2 -8 2 10 #fcfcfc
#000000 #000000 4900 1;
#X msg 600 560 dry \$1;
#X obj 680 520 hsl 50 15 0 1 0 0 empty empty empty -2 -8 2 10 #fcfcfc
#000000 #000000 2800 1;
#X msg 680 560 roomsize \$1;
#X obj 450 590 delwrite~ delayleft 4000;
#X obj 630 590 delwrite~ delayright 4000;
#X obj 70 620 vd~ delayleft;
#X obj 190 620 vd~ delayright;
#X obj 70 580 sig~;
#X obj 190 570 sig~;
#X floatatom 190 530 5 0 0 0 - - -, f 5;
#X floatatom 70 540 5 0 0 0 - - -, f 5;
#N canvas 415 104 450 303 (subpatch) 0;
#X array \$0-shaping-function 102 float 1 black #66ff00;
#A 0 -1 -0.995 -0.99 -0.985 -0.970001 -0.960001 -0.940001 -0.920002
-0.900002 -0.870003 -0.840004 -0.820004 -0.800005 -0.775006 -0.720007
-0.700007 -0.675008 -0.650009 -0.623343 -0.596677 -0.570011 -0.555011
-0.540011 -0.526678 -0.513345 -0.500012 -0.486679 -0.473346 -0.460013
-0.44668 -0.433347 -0.420014 -0.406681 -0.393348 -0.380015 -0.367158
-0.354302 -0.341445 -0.328588 -0.315731 -0.302874 -0.290018 -0.276018
-0.262018 -0.248019 -0.234019 -0.220019 -0.208353 -0.196687 -0.18502
-0.173354 -0.161687 -0.150021 -0.132244 -0.114466 -0.0966891 -0.0789117
-0.0611344 -0.0433571 -0.0255797 -0.00780238 0.00997496 0.0299745 0.049974
0.0724734 0.0949728 0.117472 0.139972 0.164971 0.18997 0.21997 0.249969
0.269969 0.284968 0.299968 0.319967 0.339967 0.359966 0.378299 0.396632
0.414965 0.433298 0.451631 0.469964 0.493296 0.516629 0.539962 0.561961
0.583961 0.60596 0.62796 0.649959 0.673292 0.696625 0.719957 0.74329
0.766623 0.789956 0.814955 0.839954 0.864954 1;
#X coords 0 1 101 -1 200 200 1;
#X restore 500 50 graph;
#X obj 80 350 tabread~ \$0-shaping-function;
#X obj 160 240 +~ 1;
#X obj 160 270 *~ 50;
#X obj 160 200 *~;
#X floatatom 220 160 5 0 1 0 - - -, f 5;
#X obj 270 800 phasor~;
#X obj 270 830 expr~ $v1 > 0.5;
#X obj 530 750 f 250;
#X floatatom 570 710 5 0 1000 0 - - -, f 5;
#X obj 460 680 bng 15 250 50 0 empty empty empty 17 7 0 10 #fcfcfc
#000000 #000000;
#X obj 460 640 r kick;
#X obj 626 656 tgl 15 0 empty empty empty 17 7 0 10 #fcfcfc #000000
#000000 1 1;
#X obj 640 690 metro 450;
#X obj 636 736 s kick;
#X floatatom 676 626 5 0 0 0 - - -, f 5;
#N canvas 672 34 450 334 vol 0;
#X obj 80 100 vline~;
#X obj 80 140 *~;
#X msg 80 60 0.5 \, 1 5 \, 0.5 60 5 \, 0 \$1 65;
#X obj 80 18 inlet;
#X obj 79 189 outlet~;
#X connect 0 0 1 1;
#X connect 0 0 1 0;
#X connect 1 0 4 0;
#X connect 2 0 0 0;
#X connect 3 0 2 0;
#X restore 530 800 pd vol env;
#N canvas 656 28 450 337 pitch 0;
#X obj 80 90 vline~;
#X obj 80 120 *~;
#X obj 80 18 inlet;
#X obj 80 270 outlet~;
#X msg 80 60 1 \, 0.5 5 \, 0 \$1 5;
#X obj 83 161 *~ 80;
#X obj 86 195 +~ 29;
#X obj 87 225 mtof~;
#X connect 0 0 1 1;
#X connect 0 0 1 0;
#X connect 1 0 5 0;
#X connect 2 0 4 0;
#X connect 4 0 0 0;
#X connect 5 0 6 0;
#X connect 6 0 7 0;
#X connect 7 0 3 0;
#X restore 366 740 pd pitch env;
#X obj 310 770 *~ 1;
#X floatatom 380 680 5 0 10 0 - - -, f 5;
#X obj 313 880 vcf~ 0.5;
#X floatatom 470 780 5 0 1000 0 - - -, f 5;
#X obj 240 730 noise~;
#X obj 430 820 *~ 1.5;
#X floatatom 660 820 5 0 1000 0 - - -, f 5;
#X obj 620 860 *~ 1;
#X obj 628 894 osc~;
#X obj 250 1130 dac~ 1 \, 2 \, 3 \, 4;
#X obj 449 985 delwrite~ delaydrum1 5000;
#X obj 450 1030 delwrite~ delaydrum2 5000;
#X obj 650 990 delwrite~ delaydrum3 5000;
#X obj 650 1040 delwrite~ delaydrum4 5000;
#X obj 870 990 vd~ delaydrum1;
#X obj 990 990 vd~ delaydrum2;
#X obj 1100 990 vd~ delaydrum3;
#X obj 1210 990 vd~ delaydrum4;
#X obj 880 910 sig~;
#X obj 1000 900 sig~;
#X floatatom 1000 860 5 0 0 0 - - -, f 5;
#X floatatom 880 870 5 0 0 0 - - -, f 5;
#X obj 1110 900 sig~;
#X obj 1230 890 sig~;
#X floatatom 1230 850 5 0 0 0 - - -, f 5;
#X floatatom 1110 860 5 0 0 0 - - -, f 5;
#X obj 450 930 *~ 2.2;
#X connect 0 0 15 0;
#X connect 0 0 47 0;
#X connect 1 0 2 0;
#X connect 2 0 0 0;
#X connect 2 0 4 0;
#X connect 2 0 5 0;
#X connect 2 0 6 0;
#X connect 3 0 26 0;
#X connect 4 0 9 0;
#X connect 5 0 8 0;
#X connect 6 0 7 0;
#X connect 7 0 15 0;
#X connect 7 0 47 0;
#X connect 8 0 15 0;
#X connect 8 0 47 0;
#X connect 9 0 15 0;
#X connect 9 0 47 0;
#X connect 10 0 14 0;
#X connect 11 0 14 0;
#X connect 12 0 14 0;
#X connect 13 0 14 0;
#X connect 14 0 28 0;
#X connect 14 0 28 1;
#X connect 15 0 14 0;
#X connect 16 0 15 1;
#X connect 16 0 14 1;
#X connect 17 0 18 0;
#X connect 18 0 19 0;
#X connect 19 0 16 0;
#X connect 20 0 16 0;
#X connect 21 0 20 0;
#X connect 22 0 25 0;
#X connect 23 0 24 0;
#X connect 24 0 21 0;
#X connect 25 0 23 0;
#X connect 26 0 1 0;
#X connect 27 0 1 1;
#X connect 28 0 35 0;
#X connect 28 0 70 0;
#X connect 28 1 36 0;
#X connect 28 1 70 1;
#X connect 29 0 28 0;
#X connect 30 0 29 0;
#X connect 31 0 32 0;
#X connect 32 0 28 0;
#X connect 33 0 34 0;
#X connect 34 0 28 0;
#X connect 37 0 70 0;
#X connect 38 0 70 1;
#X connect 39 0 37 0;
#X connect 40 0 38 0;
#X connect 41 0 40 0;
#X connect 42 0 39 0;
#X connect 44 0 13 0;
#X connect 44 0 12 0;
#X connect 44 0 11 0;
#X connect 44 0 10 0;
#X connect 45 0 46 0;
#X connect 46 0 44 0;
#X connect 47 0 45 0;
#X connect 48 0 47 1;
#X connect 49 0 50 0;
#X connect 50 0 63 0;
#X connect 51 0 59 0;
#X connect 51 0 60 0;
#X connect 52 0 51 1;
#X connect 53 0 51 0;
#X connect 54 0 53 0;
#X connect 55 0 56 0;
#X connect 56 0 57 0;
#X connect 58 0 56 1;
#X connect 60 0 61 0;
#X connect 60 0 66 0;
#X connect 61 0 49 0;
#X connect 61 0 68 0;
#X connect 62 0 61 1;
#X connect 63 0 87 0;
#X connect 64 0 66 1;
#X connect 65 0 63 0;
#X connect 66 0 63 1;
#X connect 67 0 68 1;
#X connect 68 0 69 0;
#X connect 69 0 87 0;
#X connect 75 0 70 0;
#X connect 76 0 70 0;
#X connect 77 0 70 1;
#X connect 78 0 70 1;
#X connect 79 0 75 0;
#X connect 80 0 76 0;
#X connect 81 0 80 0;
#X connect 82 0 79 0;
#X connect 83 0 77 0;
#X connect 84 0 78 0;
#X connect 85 0 84 0;
#X connect 86 0 83 0;
#X connect 87 0 71 0;
#X connect 87 0 72 0;
#X connect 87 0 73 0;
#X connect 87 0 74 0;
